<?xml version="1.0" encoding="utf-8"?>
<!-- Generator: Adobe Illustrator 22.1.0, SVG Export Plug-In . SVG Version: 6.00 Build 0)  -->
<svg version="1.1" id="Layer_1" xmlns="http://www.w3.org/2000/svg" xmlns:xlink="http://www.w3.org/1999/xlink" x="0px" y="0px"
	 viewBox="0 0 1080 1080" style="enable-background:new 0 0 1080 1080;" xml:space="preserve">
<style type="text/css">
	.st0{fill:#FFFFFF;}
</style>
<g>
	<path class="st0" d="M507.1,221.8c105.7,218.3,210,433.7,315.3,651.1c-104.6,0-206.7,0-308.9,0c0,9.4,0,17.5,0,26.3
		c5.3,0,9.5,0,13.7,0c53.9,0,107.8,0,161.6,0c47.9,0,95.9,0,143.8,0c23.1,0,27.9-7.3,18.1-27.5c-15.1-31.3-30.3-62.5-45.4-93.7
		C711,583.1,616.8,388.4,522.1,193.8c-2.8-5.7-9.5-12.9-14.5-13c-5-0.1-11.9,7-14.8,12.5c-21.2,40-41.7,80.4-62.4,120.7
		C363.2,444.7,296,575.4,228.8,706c-9.1,17.6-3.9,26.3,16.2,26.3c84,0,168,0,252,0c4.1,0,8.2-0.4,12.1-0.6c0-9.6,0-17.8,0-27.5
		c-83.4,0-165.7,0-250,0C342.1,542.9,423.9,383.7,507.1,221.8z"/>
	<path class="st0" d="M507.1,221.8c-83.2,161.9-165,321.2-247.9,482.4c84.3,0,166.6,0,250,0c0,9.7,0,17.9,0,27.5
		c-4,0.2-8.1,0.6-12.1,0.6c-84,0-168,0.1-252,0c-20.2,0-25.3-8.6-16.2-26.3C296,575.4,363.2,444.7,430.4,314.1
		c20.7-40.3,41.2-80.7,62.4-120.7c3-5.6,9.9-12.6,14.8-12.5c5,0.1,11.7,7.3,14.5,13C616.8,388.4,711,583.1,805.3,777.9
		c15.1,31.2,30.3,62.5,45.4,93.7c9.8,20.2,5,27.5-18.1,27.5c-47.9,0-95.9,0-143.8,0c-53.9,0-107.8,0-161.6,0c-4.2,0-8.4,0-13.7,0
		c0-8.8,0-17,0-26.3c102.2,0,204.3,0,308.9,0C717.1,655.4,612.8,440,507.1,221.8z"/>
</g>
</svg>
